<svg id="svg" version="1.1" xmlns="http://www.w3.org/2000/svg" xmlns:xlink="http://www.w3.org/1999/xlink" width="400" height="363.15120711562895" viewBox="0, 0, 400,363.15120711562895"><g id="svgg"><path id="path0" d="M202.033 50.686 C 191.784 52.292,180.132 55.250,174.966 57.557 C 174.129 57.931,172.331 58.683,170.972 59.229 C 162.773 62.516,154.787 67.342,145.381 74.693 C 138.630 79.968,129.098 89.451,129.098 90.892 C 129.098 90.998,129.584 90.621,130.178 90.054 C 130.772 89.488,132.287 88.182,133.545 87.152 C 134.803 86.122,137.090 84.071,138.628 82.594 C 141.446 79.886,145.823 76.480,151.207 72.805 C 152.814 71.708,155.195 70.085,156.496 69.198 C 162.965 64.791,179.376 57.988,187.548 56.326 C 189.295 55.971,192.097 55.377,193.774 55.006 C 204.047 52.736,219.078 56.416,225.883 62.866 C 234.402 70.940,243.268 94.520,245.483 114.994 C 245.634 116.391,245.868 118.512,246.004 119.706 C 246.324 122.533,246.773 132.454,246.647 133.926 C 246.593 134.555,246.478 136.900,246.391 139.136 C 246.304 141.372,246.125 144.460,245.994 145.997 C 245.862 147.535,245.629 150.851,245.475 153.367 C 245.321 155.883,245.040 158.685,244.851 159.593 C 244.662 160.502,244.372 162.503,244.207 164.041 C 242.216 182.596,235.753 200.353,226.538 212.579 C 218.689 222.994,214.659 227.539,208.577 232.838 C 206.655 234.512,205.083 235.965,205.083 236.066 C 205.083 236.962,218.384 244.854,222.078 246.149 C 223.563 246.669,226.264 247.696,228.081 248.430 C 231.741 249.909,234.190 250.722,237.992 251.720 C 239.390 252.087,241.792 252.888,243.329 253.501 C 256.076 258.579,276.280 259.378,286.658 255.214 C 297.549 250.844,311.837 237.637,314.361 229.606 C 314.537 229.047,314.940 228.132,315.257 227.573 C 316.598 225.207,318.646 214.698,319.194 207.370 C 319.324 205.623,319.557 203.278,319.710 202.160 C 320.085 199.430,319.598 187.588,318.930 183.181 C 317.423 173.246,314.558 163.512,310.678 155.146 C 310.016 153.720,308.973 151.364,306.852 146.506 C 306.059 144.689,304.603 141.724,303.618 139.919 C 302.633 138.113,300.941 134.796,299.858 132.549 C 294.908 122.274,283.715 105.058,278.034 98.983 C 277.381 98.285,276.169 96.912,275.341 95.934 C 270.426 90.126,255.304 75.720,250.156 71.941 C 249.026 71.112,247.429 69.815,246.605 69.059 C 241.290 64.181,220.440 53.067,214.553 51.975 C 213.468 51.773,211.722 51.372,210.673 51.082 C 208.245 50.412,204.794 50.254,202.033 50.686 M56.865 216.518 C 56.566 217.534,56.623 220.226,56.937 219.912 C 57.089 219.760,57.171 218.841,57.128 217.764 C 57.075 216.458,56.995 216.077,56.865 216.518 M56.722 223.685 C 56.277 224.130,56.328 227.231,56.790 227.842 C 57.126 228.287,57.164 228.092,57.171 225.858 C 57.176 224.495,57.145 223.380,57.103 223.380 C 57.061 223.380,56.889 223.517,56.722 223.685 M56.746 229.010 C 56.353 229.488,56.680 234.355,57.116 234.499 C 57.356 234.578,57.429 233.997,57.415 232.105 C 57.396 229.327,57.206 228.451,56.746 229.010 M57.178 237.221 C 57.349 238.775,57.560 239.174,57.804 238.405 C 57.984 237.838,57.528 235.832,57.220 235.832 C 57.113 235.832,57.094 236.457,57.178 237.221 M58.324 243.453 C 58.107 243.805,58.698 246.655,59.100 247.200 C 59.858 248.226,60.034 247.174,59.444 245.142 C 58.902 243.277,58.659 242.912,58.324 243.453 M74.765 275.781 C 73.995 276.552,75.043 277.932,75.874 277.242 C 76.365 276.834,76.333 276.403,75.774 275.897 C 75.219 275.395,75.158 275.388,74.765 275.781 M84.879 285.614 C 84.879 285.759,85.118 286.006,85.410 286.162 C 85.865 286.405,85.928 286.380,85.852 285.983 C 85.758 285.495,84.879 285.162,84.879 285.614 M90.306 288.052 C 90.396 288.286,90.470 288.526,90.470 288.585 C 90.470 288.643,90.642 288.691,90.851 288.691 C 91.396 288.691,91.322 288.361,90.687 287.965 C 90.205 287.663,90.161 287.673,90.306 288.052 M106.592 297.191 C 106.864 297.408,107.258 297.586,107.469 297.586 C 108.006 297.586,107.519 297.174,106.734 296.966 C 106.124 296.804,106.118 296.812,106.592 297.191 " stroke="none" fill="#94ea05" fill-rule="evenodd"></path><path id="path1" d="M185.642 69.394 C 177.735 70.165,161.697 74.287,156.544 76.872 C 155.635 77.328,154.007 78.068,152.925 78.517 C 151.844 78.966,150.014 79.926,148.859 80.650 C 147.705 81.374,146.074 82.352,145.235 82.824 C 142.192 84.535,128.154 94.160,126.048 95.979 C 124.860 97.005,122.687 98.838,121.220 100.052 C 114.827 105.339,111.854 108.808,104.903 119.088 C 99.268 127.421,89.692 144.624,84.688 155.400 C 80.908 163.543,73.235 185.473,71.308 193.647 C 67.876 208.199,67.508 223.301,70.254 236.823 C 72.451 247.638,75.028 252.163,86.730 265.751 C 92.008 271.879,103.891 281.640,111.459 286.065 C 118.967 290.453,133.249 296.315,136.435 296.315 C 136.927 296.315,135.807 295.780,134.307 295.298 C 114.777 289.026,95.588 274.413,82.692 255.993 C 77.326 248.329,74.881 236.150,76.985 227.567 C 82.783 203.908,103.152 181.577,135.324 163.603 C 140.514 160.703,155.422 155.663,163.278 154.152 C 164.396 153.936,167.376 153.361,169.899 152.872 C 181.237 150.677,185.507 150.314,197.557 150.521 C 206.604 150.676,208.288 150.840,216.040 152.318 C 218.610 152.807,221.626 153.337,222.745 153.495 C 223.863 153.653,226.321 154.188,228.208 154.684 C 233.769 156.145,233.037 156.578,233.657 151.461 C 234.922 141.027,235.035 135.774,234.318 120.584 C 233.691 107.283,230.469 97.256,223.084 85.625 C 220.846 82.099,214.546 77.596,206.480 73.758 C 196.871 69.185,193.985 68.581,185.642 69.394 " stroke="none" fill="#04e3fb" fill-rule="evenodd"></path><path id="path2" d="M141.791 60.165 L 140.915 61.118 141.868 60.242 C 142.755 59.427,142.938 59.212,142.744 59.212 C 142.701 59.212,142.272 59.641,141.791 60.165 M138.368 63.342 L 136.086 65.693 138.437 63.411 C 140.620 61.291,140.903 60.991,140.719 60.991 C 140.681 60.991,139.623 62.049,138.368 63.342 M126.797 74.142 L 125.921 75.095 126.874 74.220 C 127.398 73.738,127.827 73.309,127.827 73.267 C 127.827 73.072,127.612 73.255,126.797 74.142 M119.432 81.766 L 118.043 83.227 119.504 81.838 C 120.862 80.548,121.082 80.305,120.893 80.305 C 120.854 80.305,120.196 80.963,119.432 81.766 M277.637 82.846 C 278.325 83.545,278.945 84.117,279.015 84.117 C 279.085 84.117,278.579 83.545,277.891 82.846 C 277.202 82.147,276.582 81.576,276.512 81.576 C 276.442 81.576,276.948 82.147,277.637 82.846 M293.572 102.033 C 294.458 103.151,295.743 104.867,296.428 105.845 C 297.819 107.831,298.296 108.405,297.874 107.582 C 297.457 106.771,293.990 102.192,292.902 101.017 C 292.384 100.457,292.686 100.915,293.572 102.033 M298.983 110.038 C 299.476 111.017,299.937 111.817,300.006 111.817 C 300.076 111.817,299.730 111.017,299.238 110.038 C 298.745 109.060,298.285 108.259,298.215 108.259 C 298.145 108.259,298.491 109.060,298.983 110.038 M246.584 132.020 C 246.586 132.859,246.633 133.171,246.690 132.715 C 246.746 132.258,246.745 131.572,246.687 131.190 C 246.629 130.808,246.583 131.182,246.584 132.020 M320.989 149.809 C 320.989 149.949,321.264 150.578,321.601 151.207 C 321.938 151.836,322.213 152.236,322.213 152.097 C 322.213 151.957,321.938 151.328,321.601 150.699 C 321.264 150.070,320.989 149.670,320.989 149.809 M150.572 170.630 C 147.805 171.526,139.653 175.008,136.976 176.438 C 126.695 181.927,113.065 194.689,106.937 204.564 C 105.936 206.177,104.164 208.905,102.999 210.626 C 98.910 216.666,97.625 219.931,96.295 227.659 C 95.138 234.380,95.105 233.977,97.554 243.075 C 99.752 251.243,103.563 261.054,106.392 265.830 C 109.543 271.149,111.924 274.109,117.638 279.808 C 122.918 285.074,123.546 285.582,130.103 289.892 C 135.917 293.713,147.469 298.957,153.494 300.511 C 156.699 301.337,163.196 302.324,167.726 302.674 C 169.612 302.819,172.586 303.106,174.333 303.311 C 176.080 303.516,179.740 303.800,182.465 303.943 C 185.191 304.086,189.651 304.324,192.376 304.471 C 198.193 304.785,210.151 304.581,217.281 304.047 C 222.315 303.669,225.584 303.172,234.689 301.399 C 237.484 300.854,240.851 300.224,242.170 299.998 C 244.838 299.540,246.790 299.102,253.494 297.454 C 256.010 296.836,259.503 295.992,261.255 295.579 C 272.181 293.007,282.711 288.265,299.318 278.439 C 316.273 268.408,325.010 251.295,326.300 225.591 C 326.453 222.544,326.515 219.456,326.438 218.729 C 326.362 218.003,326.190 215.807,326.056 213.850 C 325.588 206.969,325.251 203.944,324.530 200.148 C 323.442 194.414,322.999 193.634,323.509 198.348 C 327.942 239.316,316.731 265.864,291.440 274.287 C 284.503 276.597,274.190 276.393,262.352 273.710 C 261.114 273.429,257.872 272.744,255.146 272.188 C 246.497 270.421,243.236 269.224,231.639 263.557 C 220.434 258.082,203.809 247.640,198.294 242.615 C 197.485 241.878,196.309 240.882,195.680 240.403 C 185.221 232.427,172.244 217.875,166.336 207.497 C 164.090 203.551,164.304 203.987,161.735 198.094 C 160.516 195.299,158.847 191.475,158.026 189.597 C 155.815 184.545,153.667 177.243,153.124 172.935 C 152.828 170.590,152.710 170.013,152.530 170.033 C 152.431 170.045,151.550 170.313,150.572 170.630 M319.520 188.437 C 319.521 189.276,319.569 189.588,319.625 189.131 C 319.682 188.675,319.680 187.988,319.622 187.607 C 319.565 187.225,319.518 187.598,319.520 188.437 M319.778 194.536 C 319.780 195.515,319.825 195.884,319.881 195.356 C 319.936 194.829,319.935 194.029,319.878 193.578 C 319.822 193.126,319.777 193.558,319.778 194.536 M337.289 215.248 C 337.289 215.737,337.341 215.937,337.405 215.693 C 337.469 215.448,337.469 215.048,337.405 214.803 C 337.341 214.558,337.289 214.759,337.289 215.248 M336.794 235.197 C 336.796 235.896,336.846 236.152,336.904 235.765 C 336.962 235.379,336.961 234.807,336.901 234.495 C 336.840 234.182,336.793 234.498,336.794 235.197 M336.540 238.501 C 336.542 239.199,336.592 239.455,336.650 239.069 C 336.708 238.683,336.707 238.111,336.646 237.798 C 336.586 237.486,336.538 237.802,336.540 238.501 M336.112 241.576 C 336.017 242.505,335.990 243.318,336.054 243.381 C 336.117 243.444,336.250 242.739,336.349 241.813 C 336.448 240.887,336.474 240.074,336.407 240.007 C 336.340 239.940,336.207 240.646,336.112 241.576 M304.819 242.757 L 303.558 244.091 304.892 242.830 C 305.626 242.137,306.226 241.536,306.226 241.496 C 306.226 241.307,305.991 241.518,304.819 242.757 M335.342 245.634 C 335.249 246.007,335.221 246.361,335.281 246.420 C 335.341 246.480,335.467 246.225,335.560 245.852 C 335.653 245.480,335.681 245.126,335.621 245.066 C 335.561 245.006,335.436 245.262,335.342 245.634 M334.204 249.578 C 334.032 250.152,333.938 250.668,333.995 250.725 C 334.052 250.782,334.240 250.360,334.411 249.786 C 334.583 249.213,334.677 248.697,334.620 248.639 C 334.563 248.582,334.375 249.005,334.204 249.578 M317.648 277.954 L 316.773 278.907 317.726 278.031 C 318.250 277.550,318.679 277.121,318.679 277.078 C 318.679 276.884,318.463 277.067,317.648 277.954 M312.436 282.910 L 311.690 283.736 312.516 282.989 C 313.286 282.294,313.459 282.084,313.262 282.084 C 313.219 282.084,312.847 282.456,312.436 282.910 M264.549 306.607 C 264.199 306.807,264.028 306.971,264.168 306.971 C 264.307 306.971,264.708 306.807,265.057 306.607 C 265.407 306.408,265.578 306.244,265.438 306.244 C 265.299 306.244,264.898 306.408,264.549 306.607 M261.753 307.497 C 261.243 307.660,261.218 307.702,261.626 307.708 C 261.906 307.712,262.363 307.617,262.643 307.497 C 263.291 307.219,262.622 307.219,261.753 307.497 M255.019 309.276 C 254.371 309.554,255.040 309.554,255.909 309.276 C 256.419 309.112,256.444 309.071,256.036 309.065 C 255.756 309.061,255.299 309.156,255.019 309.276 M249.873 310.213 C 250.118 310.277,250.518 310.277,250.762 310.213 C 251.007 310.149,250.807 310.097,250.318 310.097 C 249.828 310.097,249.628 310.149,249.873 310.213 M158.895 313.009 C 159.139 313.073,159.539 313.073,159.784 313.009 C 160.029 312.945,159.828 312.893,159.339 312.893 C 158.850 312.893,158.650 312.945,158.895 313.009 M166.903 313.776 C 167.219 313.836,167.676 313.834,167.919 313.771 C 168.162 313.707,167.903 313.657,167.344 313.660 C 166.785 313.663,166.586 313.715,166.903 313.776 M189.774 315.300 C 190.090 315.361,190.548 315.359,190.791 315.295 C 191.034 315.232,190.775 315.182,190.216 315.185 C 189.657 315.188,189.458 315.240,189.774 315.300 M200.191 315.562 C 200.924 315.614,202.125 315.614,202.859 315.562 C 203.593 315.511,202.992 315.469,201.525 315.469 C 200.057 315.469,199.457 315.511,200.191 315.562 " stroke="none" fill="#fc4c5c" fill-rule="evenodd"></path><path id="path3" d="M191.614 35.727 C 191.264 35.786,190.121 35.959,189.072 36.112 C 182.844 37.020,177.029 39.159,167.217 44.153 C 159.539 48.061,153.775 51.553,148.666 55.394 C 147.618 56.182,146.303 57.104,145.745 57.443 C 144.501 58.199,141.970 60.363,138.761 63.416 C 137.430 64.683,135.483 66.418,134.435 67.272 C 132.282 69.026,128.595 72.580,125.791 75.604 C 124.754 76.722,122.353 79.238,120.456 81.194 C 118.558 83.151,115.987 85.953,114.744 87.421 C 113.500 88.888,111.657 90.962,110.650 92.029 C 107.249 95.631,105.031 98.634,96.350 111.393 C 93.124 116.134,90.780 119.811,88.914 123.058 C 83.466 132.536,80.512 138.048,75.324 148.412 C 72.483 154.088,70.974 157.605,68.456 164.422 C 67.966 165.750,67.171 167.808,66.691 168.996 C 65.884 170.993,65.041 173.748,62.135 183.880 C 61.531 185.985,60.858 188.138,60.638 188.663 C 60.419 189.187,60.063 191.067,59.848 192.839 C 59.632 194.611,59.120 198.005,58.710 200.381 C 57.127 209.550,56.669 227.814,57.816 236.086 C 58.241 239.152,59.367 244.533,60.129 247.141 C 60.619 248.818,61.169 250.842,61.352 251.639 C 61.686 253.091,64.595 260.022,65.171 260.737 C 65.720 261.419,66.582 263.044,66.582 263.399 C 66.582 263.589,66.668 263.782,66.773 263.829 C 67.076 263.964,68.869 266.715,68.869 267.045 C 68.869 267.210,68.990 267.344,69.138 267.344 C 69.286 267.344,69.348 267.440,69.275 267.558 C 69.203 267.675,69.625 268.272,70.213 268.884 C 70.802 269.496,72.123 271.144,73.148 272.546 C 76.111 276.597,80.469 280.442,89.652 287.107 C 92.859 289.435,97.434 292.249,100.127 293.551 C 101.874 294.396,104.161 295.522,105.210 296.053 C 106.258 296.584,107.573 297.164,108.132 297.340 C 108.691 297.517,110.635 298.289,112.452 299.057 C 114.269 299.824,116.957 300.884,118.424 301.412 C 119.892 301.939,122.465 302.911,124.142 303.570 C 125.820 304.230,127.935 304.971,128.844 305.218 C 129.752 305.465,131.010 305.847,131.639 306.067 C 132.268 306.287,134.041 306.827,135.578 307.268 C 137.116 307.708,139.231 308.337,140.280 308.666 C 147.542 310.944,157.874 312.813,166.090 313.335 C 168.236 313.471,170.722 313.700,171.614 313.842 C 172.506 313.985,175.456 314.213,178.168 314.350 C 180.881 314.487,184.530 314.731,186.277 314.893 C 188.052 315.058,194.442 315.201,200.762 315.217 C 216.477 315.257,220.077 314.903,240.534 311.301 C 244.447 310.613,248.793 309.924,250.191 309.772 C 253.275 309.436,254.398 309.198,256.738 308.380 C 257.729 308.034,259.520 307.568,260.718 307.344 C 261.917 307.121,263.297 306.764,263.787 306.552 C 264.276 306.339,266.963 305.336,269.759 304.322 C 272.554 303.309,276.385 301.828,278.272 301.031 C 280.159 300.234,283.018 299.068,284.625 298.441 C 295.586 294.162,309.265 285.833,315.853 279.426 C 327.592 268.009,334.530 253.975,336.209 238.247 C 336.492 235.591,336.845 232.369,336.993 231.087 C 337.381 227.719,337.388 214.910,337.004 211.690 C 335.918 202.605,335.091 198.198,333.047 190.597 C 332.389 188.151,331.696 185.464,331.506 184.625 C 331.317 183.787,330.937 182.471,330.662 181.703 C 330.388 180.934,329.913 179.219,329.607 177.891 C 329.302 176.563,328.726 174.447,328.327 173.189 C 327.929 171.931,327.076 169.072,326.432 166.836 C 323.095 155.251,321.174 150.318,317.876 144.854 C 314.256 138.857,311.754 134.314,308.638 128.081 C 305.429 121.662,302.996 117.197,300.441 113.042 C 299.897 112.159,298.867 110.437,298.152 109.216 C 296.374 106.183,287.402 94.009,284.991 91.360 C 284.228 90.521,282.792 88.863,281.799 87.675 C 276.759 81.642,258.426 64.190,253.804 61.025 C 253.136 60.568,251.534 59.258,250.245 58.114 C 248.110 56.220,245.730 54.613,240.025 51.210 C 224.519 41.961,217.336 38.933,206.607 37.122 C 204.860 36.826,202.802 36.403,202.033 36.181 C 200.683 35.791,193.171 35.464,191.614 35.727 M210.762 50.822 C 211.859 51.115,213.689 51.530,214.828 51.744 C 220.580 52.826,241.261 63.999,246.845 69.043 C 247.847 69.947,249.554 71.312,250.640 72.075 C 251.726 72.838,253.385 74.173,254.325 75.042 C 255.266 75.911,256.779 77.251,257.687 78.019 C 260.220 80.160,274.101 94.076,276.648 97.027 C 285.498 107.282,293.492 119.448,300.478 133.291 C 302.100 136.506,304.074 140.386,304.866 141.914 C 306.326 144.732,309.217 151.120,310.012 153.281 C 310.251 153.933,310.566 154.619,310.711 154.806 C 311.547 155.881,314.884 164.823,316.283 169.735 C 319.452 180.857,320.876 193.884,319.876 202.590 C 319.647 204.590,319.393 207.084,319.313 208.132 C 318.782 215.093,316.596 225.971,315.229 228.463 C 315.037 228.812,314.599 229.814,314.255 230.689 C 311.182 238.505,297.960 250.697,287.897 254.996 C 280.019 258.361,270.555 259.022,256.671 257.178 C 251.144 256.444,236.703 252.176,228.463 248.842 C 226.715 248.135,223.843 247.037,222.079 246.402 C 217.960 244.918,206.421 238.132,204.900 236.299 C 204.643 235.990,205.318 235.295,208.947 232.132 C 215.054 226.809,216.927 224.679,226.025 212.706 C 235.775 199.876,241.976 183.091,243.958 164.168 C 244.126 162.560,244.414 160.502,244.598 159.593 C 244.968 157.759,245.515 150.474,246.269 137.357 C 246.948 125.553,244.819 106.753,241.524 95.443 C 236.600 78.543,229.902 65.789,223.627 61.367 C 217.181 56.825,210.978 54.958,201.525 54.716 L 196.823 54.596 190.724 55.895 C 178.787 58.438,163.904 64.390,156.035 69.767 C 154.428 70.865,152.084 72.462,150.826 73.315 C 144.688 77.477,142.206 79.421,138.471 82.994 C 136.987 84.413,134.393 86.682,132.706 88.036 C 131.019 89.390,129.590 90.635,129.530 90.802 C 129.471 90.969,129.341 91.031,129.242 90.939 C 128.709 90.447,130.527 88.219,135.292 83.526 C 146.495 72.490,159.090 63.789,170.462 59.229 C 171.822 58.684,173.810 57.836,174.879 57.345 C 179.502 55.223,185.380 53.617,196.442 51.455 C 204.256 49.927,206.966 49.807,210.762 50.822 M196.702 69.506 C 205.448 71.723,220.301 80.474,223.615 85.362 C 228.607 92.727,231.370 99.327,233.521 109.030 C 234.699 114.342,235.933 133.411,235.462 139.009 C 234.581 149.454,233.905 155.454,233.541 156.042 C 233.408 156.257,232.822 156.185,231.356 155.773 C 228.045 154.844,224.644 154.067,222.490 153.748 C 221.372 153.582,218.113 153.008,215.248 152.472 C 207.979 151.112,206.269 150.950,197.332 150.778 C 184.771 150.535,178.346 151.247,162.135 154.675 C 153.780 156.442,140.219 161.190,134.632 164.304 C 103.810 181.485,83.383 203.818,77.227 227.065 C 75.041 235.320,77.339 247.832,82.392 255.192 C 95.169 273.799,113.311 287.847,133.926 295.094 C 136.270 295.918,137.208 296.494,135.705 296.187 C 133.840 295.805,126.341 293.454,124.396 292.642 C 120.951 291.203,115.833 288.804,114.231 287.876 C 113.393 287.391,111.563 286.330,110.165 285.520 C 105.724 282.944,99.451 278.110,93.802 272.911 C 92.070 271.317,90.325 269.746,89.924 269.420 C 89.123 268.771,84.437 263.424,81.117 259.373 C 78.163 255.769,74.243 249.844,73.100 247.254 C 66.576 232.473,66.500 207.433,72.918 186.912 C 77.600 171.939,82.166 159.936,86.403 151.458 C 94.968 134.319,100.722 124.463,108.804 113.088 C 109.747 111.760,110.929 110.095,111.431 109.389 C 112.566 107.789,118.043 102.338,121.093 99.772 C 122.351 98.714,124.180 97.146,125.159 96.289 C 126.137 95.431,128.767 93.518,131.004 92.037 C 133.240 90.556,136.900 88.088,139.136 86.551 C 141.372 85.015,143.945 83.340,144.854 82.829 C 145.762 82.318,147.588 81.239,148.910 80.431 C 150.233 79.622,152.063 78.648,152.976 78.265 C 153.890 77.882,155.663 77.092,156.915 76.509 C 169.408 70.701,188.298 67.376,196.702 69.506 M203.939 163.426 C 211.245 163.971,222.018 166.620,228.187 169.388 L 229.728 170.080 229.591 171.126 C 229.515 171.702,229.346 172.859,229.215 173.698 C 229.084 174.536,228.798 176.366,228.579 177.764 C 226.959 188.119,220.278 203.148,214.399 209.661 C 205.216 219.835,203.751 221.346,200.173 224.341 C 197.169 226.856,197.639 226.837,194.819 224.555 C 183.531 215.417,175.324 205.044,170.877 194.292 C 167.349 185.760,165.142 177.359,164.872 171.427 L 164.803 169.919 166.963 169.062 C 172.471 166.878,179.815 164.659,183.990 163.918 C 186.296 163.509,188.469 163.119,188.818 163.052 C 189.722 162.879,200.012 163.133,203.939 163.426 M152.840 169.728 C 152.916 169.851,153.146 171.138,153.350 172.587 C 154.291 179.255,156.296 185.589,159.975 193.520 C 160.493 194.638,161.713 197.382,162.686 199.619 C 166.256 207.830,171.166 215.614,176.902 222.157 C 180.236 225.960,193.194 238.384,195.807 240.284 C 196.366 240.690,197.345 241.498,197.983 242.079 C 205.722 249.122,227.538 262.061,241.586 267.940 C 246.325 269.924,255.042 272.416,257.270 272.425 C 257.530 272.426,259.131 272.766,260.828 273.179 C 270.540 275.548,282.564 276.407,287.929 275.115 C 303.006 271.486,313.578 261.536,319.932 244.994 C 324.161 233.985,325.370 213.295,322.881 194.536 L 322.746 193.520 323.243 194.599 C 324.225 196.732,325.466 204.039,326.059 211.182 C 328.314 238.312,322.089 259.491,308.179 272.012 C 302.900 276.764,301.171 277.957,294.193 281.670 C 292.676 282.477,290.732 283.567,289.873 284.092 C 281.880 288.978,268.502 294.332,259.652 296.188 C 257.943 296.546,255.057 297.228,253.240 297.702 C 249.240 298.748,244.011 299.890,239.390 300.729 C 237.503 301.071,232.872 301.937,229.098 302.654 C 221.640 304.069,219.167 304.310,208.259 304.686 C 202.413 304.887,188.141 304.656,186.200 304.328 C 185.753 304.253,183.134 304.081,180.379 303.947 C 177.624 303.813,174.650 303.592,173.771 303.456 C 172.892 303.320,170.457 303.079,168.361 302.921 C 154.783 301.895,141.252 297.553,131.336 291.039 C 119.279 283.119,111.334 275.158,105.754 265.406 C 101.836 258.560,96.268 242.510,95.272 235.197 C 94.847 232.073,96.541 222.179,98.166 218.297 C 99.705 214.621,99.949 214.184,103.218 209.229 C 104.802 206.827,106.763 203.822,107.574 202.552 C 112.911 194.199,126.403 181.665,135.470 176.638 C 141.561 173.262,152.367 168.963,152.840 169.728 " stroke="none" fill="#040404" fill-rule="evenodd"></path><path id="path4" d="M194.483 35.513 C 195.433 35.562,196.919 35.561,197.787 35.512 C 198.655 35.462,197.878 35.422,196.061 35.423 C 194.244 35.423,193.534 35.464,194.483 35.513 M190.791 35.758 C 191.107 35.819,191.564 35.816,191.807 35.753 C 192.050 35.689,191.792 35.639,191.233 35.642 C 190.673 35.645,190.475 35.697,190.791 35.758 M212.834 38.390 C 213.812 38.654,214.723 38.835,214.859 38.794 C 215.144 38.705,211.876 37.854,211.384 37.888 C 211.203 37.901,211.855 38.127,212.834 38.390 M176.112 39.771 C 175.762 39.971,175.591 40.134,175.731 40.134 C 175.870 40.134,176.271 39.971,176.620 39.771 C 176.970 39.572,177.141 39.408,177.001 39.408 C 176.861 39.408,176.461 39.572,176.112 39.771 M221.347 41.296 C 221.696 41.496,222.097 41.659,222.236 41.659 C 222.376 41.659,222.205 41.496,221.855 41.296 C 221.506 41.096,221.105 40.933,220.966 40.933 C 220.826 40.933,220.997 41.096,221.347 41.296 M170.267 42.440 C 169.498 42.846,168.959 43.183,169.068 43.190 C 169.338 43.206,171.792 41.954,171.792 41.800 C 171.792 41.630,171.827 41.615,170.267 42.440 M223.634 42.313 C 223.983 42.512,224.384 42.676,224.524 42.676 C 224.663 42.676,224.492 42.512,224.142 42.313 C 223.793 42.113,223.393 41.949,223.253 41.949 C 223.113 41.949,223.285 42.113,223.634 42.313 M164.871 45.069 C 162.605 46.325,161.914 46.870,163.787 45.926 C 165.698 44.961,167.377 43.970,167.090 43.975 C 166.950 43.978,165.952 44.470,164.871 45.069 M230.496 45.603 C 230.496 45.673,230.839 45.908,231.258 46.125 C 231.677 46.341,232.020 46.462,232.020 46.392 C 232.020 46.322,231.677 46.087,231.258 45.870 C 230.839 45.654,230.496 45.533,230.496 45.603 M159.270 48.164 C 158.190 48.796,157.306 49.377,157.306 49.455 C 157.306 49.533,157.678 49.374,158.132 49.101 C 158.586 48.829,159.501 48.294,160.165 47.913 C 161.197 47.320,161.585 47.014,161.303 47.014 C 161.266 47.014,160.351 47.531,159.270 48.164 M233.672 47.454 C 233.812 47.586,234.612 48.060,235.451 48.508 C 236.290 48.957,236.747 49.138,236.468 48.911 C 235.893 48.445,233.279 47.082,233.672 47.454 M204.892 50.249 C 205.416 50.303,206.274 50.303,206.798 50.249 C 207.322 50.194,206.893 50.149,205.845 50.149 C 204.797 50.149,204.368 50.194,204.892 50.249 M238.862 50.497 C 239.762 51.163,242.160 52.465,241.487 51.922 C 241.173 51.668,240.315 51.142,239.581 50.752 C 238.847 50.361,238.524 50.247,238.862 50.497 M153.175 51.973 C 151.813 52.884,150.699 53.687,150.699 53.759 C 150.699 53.885,155.158 50.979,155.642 50.538 C 156.243 49.989,155.463 50.443,153.175 51.973 M212.834 51.582 C 213.319 51.797,214.939 51.942,214.718 51.751 C 214.660 51.700,214.098 51.591,213.469 51.508 C 212.705 51.407,212.494 51.431,212.834 51.582 M217.662 52.753 C 219.895 53.696,220.151 53.734,218.424 52.865 C 217.586 52.443,216.728 52.101,216.518 52.103 C 216.309 52.106,216.823 52.399,217.662 52.753 M244.456 53.827 C 244.796 54.103,245.425 54.523,245.854 54.759 L 246.633 55.189 246.014 54.686 C 245.674 54.410,245.045 53.991,244.617 53.754 L 243.837 53.325 244.456 53.827 M220.076 53.684 C 220.282 53.887,222.618 54.874,222.618 54.757 C 222.618 54.699,222.303 54.491,221.919 54.295 C 221.158 53.908,219.871 53.481,220.076 53.684 M148.793 55.048 C 147.954 55.685,146.525 56.692,145.616 57.285 C 143.822 58.456,142.166 59.878,138.628 63.285 C 137.370 64.496,135.483 66.178,134.435 67.024 C 133.386 67.869,131.442 69.613,130.114 70.900 C 127.766 73.175,127.783 73.164,130.759 70.482 C 132.441 68.966,134.671 67.012,135.714 66.139 C 136.758 65.267,139.041 63.219,140.788 61.588 C 142.535 59.958,144.615 58.200,145.411 57.682 C 147.931 56.042,150.817 53.836,150.381 53.882 C 150.346 53.886,149.632 54.410,148.793 55.048 M183.863 54.130 C 183.215 54.408,183.883 54.408,184.752 54.130 C 185.263 53.966,185.288 53.925,184.879 53.919 C 184.600 53.915,184.142 54.009,183.863 54.130 M198.158 54.572 C 199.031 54.622,200.461 54.622,201.334 54.572 C 202.208 54.522,201.493 54.482,199.746 54.482 C 197.999 54.482,197.284 54.522,198.158 54.572 M180.940 55.019 C 180.451 55.207,180.222 55.362,180.432 55.362 C 180.642 55.362,181.213 55.207,181.703 55.019 C 182.192 54.831,182.421 54.677,182.211 54.677 C 182.001 54.677,181.429 54.831,180.940 55.019 M204.892 54.813 C 205.137 54.877,205.537 54.877,205.781 54.813 C 206.026 54.749,205.826 54.697,205.337 54.697 C 204.848 54.697,204.647 54.749,204.892 54.813 M250.064 57.905 C 251.112 58.896,252.656 60.185,253.494 60.770 C 255.299 62.029,255.083 61.697,253.194 60.308 C 252.470 59.775,251.040 58.611,250.017 57.721 L 248.158 56.104 250.064 57.905 M226.175 56.542 C 226.175 56.714,228.240 57.741,228.355 57.626 C 228.408 57.573,227.939 57.280,227.313 56.976 C 226.687 56.672,226.175 56.477,226.175 56.542 M180.559 58.314 C 179.578 58.763,180.034 58.770,181.194 58.323 C 181.684 58.134,181.912 57.977,181.703 57.972 C 181.493 57.968,180.978 58.122,180.559 58.314 M231.512 59.329 C 231.512 59.399,231.970 59.689,232.529 59.975 C 233.088 60.260,233.545 60.436,233.545 60.366 C 233.545 60.296,233.088 60.006,232.529 59.720 C 231.970 59.435,231.512 59.259,231.512 59.329 M224.004 61.552 C 224.418 61.872,225.333 62.646,226.037 63.271 C 227.224 64.323,227.253 64.335,226.429 63.437 C 225.940 62.904,225.025 62.130,224.396 61.718 C 223.767 61.306,223.591 61.231,224.004 61.552 M256.036 62.641 C 258.614 65.011,260.869 66.994,261.352 67.317 C 262.165 67.862,258.533 64.544,256.671 63.041 C 255.762 62.308,255.476 62.128,256.036 62.641 M167.471 63.405 C 167.122 63.605,166.950 63.769,167.090 63.769 C 167.230 63.769,167.630 63.605,167.980 63.405 C 168.329 63.206,168.501 63.042,168.361 63.042 C 168.221 63.042,167.821 63.206,167.471 63.405 M228.189 65.883 C 228.793 66.687,229.337 67.344,229.398 67.344 C 229.572 67.344,227.900 65.073,227.472 64.728 C 227.264 64.560,227.586 65.079,228.189 65.883 M161.563 66.217 C 160.619 66.701,159.848 67.154,159.848 67.224 C 159.848 67.338,163.380 65.646,163.638 65.409 C 163.986 65.089,163.048 65.455,161.563 66.217 M230.493 69.107 C 231.059 70.007,231.596 70.808,231.684 70.886 C 232.037 71.198,230.652 68.884,230.077 68.201 C 229.739 67.800,229.927 68.208,230.493 69.107 M246.125 68.615 C 246.670 69.174,247.174 69.632,247.244 69.632 C 247.314 69.632,246.925 69.174,246.379 68.615 C 245.833 68.056,245.329 67.598,245.259 67.598 C 245.189 67.598,245.579 68.056,246.125 68.615 M264.168 69.796 C 265.286 70.913,269.241 74.793,272.957 78.417 C 279.582 84.879,279.560 84.854,271.813 77.129 C 267.468 72.796,263.513 68.916,263.024 68.507 C 262.535 68.098,263.050 68.678,264.168 69.796 M187.166 68.863 C 180.952 69.194,169.975 71.591,162.455 74.260 C 158.615 75.622,158.984 75.803,162.945 74.499 C 175.618 70.328,189.359 68.233,195.595 69.521 C 204.264 71.312,219.761 80.390,223.084 85.625 C 230.469 97.256,233.691 107.283,234.318 120.584 C 235.035 135.774,234.922 141.027,233.657 151.461 C 233.037 156.578,233.769 156.145,228.208 154.684 C 226.321 154.188,223.863 153.653,222.745 153.495 C 221.626 153.337,218.610 152.807,216.040 152.318 C 208.288 150.840,206.604 150.676,197.557 150.521 C 185.507 150.314,181.237 150.677,169.899 152.872 C 167.376 153.361,164.396 153.936,163.278 154.152 C 155.422 155.663,140.514 160.703,135.324 163.603 C 113.766 175.647,98.077 188.956,88.525 203.304 C 87.015 205.573,86.850 205.845,86.987 205.845 C 87.045 205.845,87.642 205.016,88.314 204.003 C 97.868 189.605,113.910 175.855,134.632 164.304 C 140.219 161.190,153.780 156.442,162.135 154.675 C 178.346 151.247,184.771 150.535,197.332 150.778 C 206.269 150.950,207.979 151.112,215.248 152.472 C 218.113 153.008,221.372 153.582,222.490 153.748 C 224.644 154.067,228.045 154.844,231.356 155.773 C 232.822 156.185,233.408 156.257,233.541 156.042 C 233.905 155.454,234.581 149.454,235.462 139.009 C 235.933 133.411,234.699 114.342,233.521 109.030 C 231.370 99.327,228.607 92.727,223.615 85.362 C 221.715 82.559,214.357 77.210,208.386 74.291 C 198.024 69.225,194.983 68.447,187.166 68.863 M232.326 72.294 C 232.630 72.920,232.922 73.389,232.975 73.335 C 233.090 73.220,232.064 71.156,231.891 71.156 C 231.826 71.156,232.022 71.668,232.326 72.294 M122.556 78.717 C 119.764 81.617,117.048 84.504,116.520 85.133 L 115.559 86.277 116.651 85.133 C 117.251 84.504,119.294 82.389,121.189 80.432 C 127.290 74.135,127.943 73.443,127.786 73.443 C 127.701 73.443,125.347 75.816,122.556 78.717 M254.119 75.032 C 254.742 75.696,255.285 76.239,255.326 76.239 C 255.517 76.239,255.315 76.011,254.193 74.958 L 252.986 73.825 254.119 75.032 M155.273 77.255 C 154.504 77.662,153.990 77.994,154.130 77.994 C 154.269 77.994,155.013 77.662,155.781 77.255 C 156.550 76.849,157.065 76.517,156.925 76.517 C 156.785 76.517,156.042 76.849,155.273 77.255 M139.763 79.225 L 138.374 80.686 139.835 79.297 C 141.192 78.007,141.412 77.764,141.224 77.764 C 141.184 77.764,140.527 78.421,139.763 79.225 M257.433 77.843 C 257.433 77.887,257.805 78.259,258.259 78.669 L 259.085 79.416 258.339 78.590 C 257.643 77.820,257.433 77.647,257.433 77.843 M151.398 78.926 C 150.412 79.460,150.524 79.645,151.525 79.136 C 152.483 78.648,152.652 78.522,152.330 78.536 C 152.201 78.542,151.782 78.717,151.398 78.926 M259.975 80.384 C 259.975 80.428,260.346 80.800,260.801 81.210 L 261.626 81.957 260.880 81.131 C 260.184 80.361,259.975 80.188,259.975 80.384 M138.495 82.783 L 136.341 85.006 138.564 82.852 C 139.787 81.667,140.788 80.666,140.788 80.628 C 140.788 80.443,140.496 80.717,138.495 82.783 M147.518 81.230 C 146.221 82.090,145.764 82.543,146.777 81.966 C 147.668 81.457,148.857 80.573,148.661 80.565 C 148.589 80.562,148.074 80.861,147.518 81.230 M267.598 87.802 C 270.881 91.086,273.624 93.774,273.694 93.774 C 273.763 93.774,271.135 91.086,267.853 87.802 C 264.570 84.517,261.827 81.830,261.758 81.830 C 261.688 81.830,264.316 84.517,267.598 87.802 M135.451 83.227 C 134.834 83.856,134.386 84.371,134.456 84.371 C 134.526 84.371,135.088 83.856,135.705 83.227 C 136.322 82.598,136.770 82.084,136.700 82.084 C 136.631 82.084,136.068 82.598,135.451 83.227 M142.726 84.112 C 141.660 84.808,140.788 85.434,140.788 85.504 C 140.788 85.614,144.533 83.252,144.830 82.955 C 145.213 82.572,144.402 83.018,142.726 84.112 M131.639 87.039 C 131.022 87.668,130.574 88.183,130.644 88.183 C 130.714 88.183,131.276 87.668,131.893 87.039 C 132.511 86.410,132.958 85.896,132.889 85.896 C 132.819 85.896,132.256 86.410,131.639 87.039 M281.538 87.357 C 282.285 88.231,282.953 88.945,283.022 88.945 C 283.202 88.945,281.170 86.548,280.631 86.124 C 280.382 85.929,280.790 86.483,281.538 87.357 M111.559 90.788 C 110.251 92.220,109.612 92.992,110.140 92.503 C 111.202 91.519,114.220 88.183,114.048 88.183 C 113.988 88.183,112.868 89.355,111.559 90.788 M283.630 89.835 C 283.816 90.114,284.395 90.769,284.916 91.290 C 285.438 91.811,286.563 93.155,287.416 94.276 C 288.270 95.398,289.025 96.315,289.095 96.315 C 289.348 96.315,286.091 92.211,284.708 90.785 C 283.929 89.983,283.444 89.555,283.630 89.835 M132.716 90.858 C 131.984 91.351,131.385 91.810,131.385 91.877 C 131.385 91.945,132.014 91.582,132.783 91.072 C 134.004 90.261,134.363 89.962,134.114 89.962 C 134.077 89.962,133.448 90.365,132.716 90.858 M130.178 92.532 C 129.312 93.087,129.031 93.460,129.797 93.039 C 130.380 92.718,131.293 92.012,131.131 92.007 C 131.061 92.005,130.632 92.242,130.178 92.532 M127.303 94.523 C 126.386 95.212,124.842 96.503,123.872 97.392 C 122.903 98.281,121.137 99.818,119.949 100.808 C 116.327 103.826,110.257 110.260,110.300 111.037 C 110.305 111.117,110.562 110.839,110.871 110.419 C 112.925 107.638,116.868 103.694,121.222 100.066 C 122.689 98.844,124.577 97.243,125.420 96.508 C 126.262 95.773,127.463 94.745,128.088 94.224 C 129.697 92.882,129.273 93.044,127.303 94.523 M274.703 95.108 C 275.757 96.230,275.985 96.432,275.985 96.241 C 275.985 96.200,275.442 95.657,274.778 95.034 L 273.571 93.901 274.703 95.108 M107.090 95.870 C 105.977 97.154,105.646 97.586,105.775 97.586 C 105.850 97.586,106.333 97.071,106.848 96.442 C 107.802 95.277,107.992 94.830,107.090 95.870 M290.369 98.164 C 290.601 98.552,292.234 100.807,293.998 103.176 C 295.762 105.544,297.816 108.564,298.562 109.886 C 300.461 113.252,300.908 113.711,299.328 110.673 C 297.761 107.659,296.352 105.563,293.337 101.757 C 292.110 100.208,290.845 98.607,290.526 98.199 C 289.951 97.464,289.950 97.464,290.369 98.164 M278.261 99.174 C 279.314 100.296,279.543 100.498,279.543 100.307 C 279.543 100.266,278.999 99.723,278.335 99.100 L 277.128 97.967 278.261 99.174 M103.447 100.762 C 102.723 101.811,102.185 102.668,102.252 102.668 C 102.320 102.668,102.874 101.954,103.485 101.080 C 104.835 99.147,105.017 98.856,104.875 98.856 C 104.815 98.856,104.172 99.714,103.447 100.762 M100.381 105.210 C 99.812 106.048,99.403 106.734,99.473 106.734 C 99.543 106.734,100.066 106.048,100.635 105.210 C 101.205 104.371,101.614 103.685,101.544 103.685 C 101.474 103.685,100.951 104.371,100.381 105.210 M97.078 109.911 C 96.370 110.959,95.849 111.817,95.918 111.817 C 95.988 111.817,96.624 110.959,97.332 109.911 C 98.039 108.863,98.561 108.005,98.491 108.005 C 98.421 108.005,97.785 108.863,97.078 109.911 M285.896 109.276 C 286.194 109.695,286.496 110.038,286.566 110.038 C 286.636 110.038,286.449 109.695,286.150 109.276 C 285.851 108.856,285.550 108.513,285.480 108.513 C 285.410 108.513,285.597 108.856,285.896 109.276 M244.786 111.563 C 244.786 112.052,244.838 112.252,244.902 112.008 C 244.966 111.763,244.966 111.363,244.902 111.118 C 244.838 110.874,244.786 111.074,244.786 111.563 M94.656 113.532 C 94.116 114.336,93.568 115.137,93.439 115.311 C 93.309 115.486,93.270 115.629,93.352 115.629 C 93.478 115.629,95.050 113.413,95.651 112.389 C 96.174 111.496,95.513 112.256,94.656 113.532 M245.040 113.342 C 245.040 113.831,245.092 114.031,245.156 113.787 C 245.220 113.542,245.220 113.142,245.156 112.897 C 245.092 112.652,245.040 112.853,245.040 113.342 M108.259 113.850 C 107.961 114.269,107.774 114.612,107.843 114.612 C 107.913 114.612,108.215 114.269,108.513 113.850 C 108.812 113.431,108.999 113.088,108.929 113.088 C 108.859 113.088,108.558 113.431,108.259 113.850 M300.857 113.723 C 300.994 114.003,301.293 114.460,301.520 114.740 L 301.934 115.248 301.684 114.740 C 301.547 114.460,301.249 114.003,301.021 113.723 L 300.607 113.215 300.857 113.723 M106.443 116.455 C 105.852 117.328,104.672 119.072,103.819 120.330 C 102.148 122.795,100.908 124.807,101.312 124.396 C 101.720 123.983,107.770 114.867,107.637 114.867 C 107.571 114.867,107.033 115.581,106.443 116.455 M302.655 116.773 C 303.112 117.611,303.607 118.412,303.754 118.551 C 303.901 118.691,303.647 118.119,303.190 117.281 C 302.733 116.442,302.238 115.642,302.091 115.502 C 301.944 115.362,302.198 115.934,302.655 116.773 M91.549 118.234 C 90.400 120.059,89.901 120.966,90.044 120.966 C 90.099 120.966,90.581 120.251,91.115 119.377 C 91.649 118.504,92.250 117.532,92.451 117.217 C 92.652 116.903,92.756 116.645,92.682 116.645 C 92.609 116.645,92.099 117.360,91.549 118.234 M245.553 117.789 C 245.556 118.348,245.608 118.547,245.669 118.231 C 245.730 117.915,245.727 117.457,245.664 117.214 C 245.600 116.971,245.550 117.230,245.553 117.789 M245.802 120.203 C 245.802 120.693,245.855 120.893,245.919 120.648 C 245.982 120.403,245.982 120.003,245.919 119.759 C 245.855 119.514,245.802 119.714,245.802 120.203 M306.026 122.862 C 306.612 124.045,307.133 124.972,307.184 124.921 C 307.297 124.809,305.251 120.712,305.082 120.712 C 305.014 120.712,305.439 121.679,306.026 122.862 M88.869 122.681 C 88.387 123.485,87.861 124.428,87.699 124.778 L 87.406 125.413 87.858 124.797 C 88.439 124.005,89.990 121.220,89.851 121.220 C 89.792 121.220,89.350 121.877,88.869 122.681 M246.067 122.745 C 246.067 123.374,246.116 123.631,246.177 123.316 C 246.237 123.002,246.237 122.487,246.177 122.173 C 246.116 121.858,246.067 122.116,246.067 122.745 M99.596 127.001 C 97.995 129.683,98.037 129.606,98.177 129.606 C 98.239 129.606,98.780 128.777,99.378 127.764 C 99.977 126.750,100.632 125.664,100.834 125.349 C 101.037 125.035,101.139 124.778,101.063 124.778 C 100.986 124.778,100.326 125.778,99.596 127.001 M246.343 127.319 C 246.343 128.647,246.386 129.190,246.438 128.526 C 246.491 127.862,246.491 126.776,246.438 126.112 C 246.386 125.448,246.343 125.991,246.343 127.319 M85.958 127.764 C 84.726 129.852,84.065 131.131,84.219 131.131 C 84.282 131.131,84.704 130.473,85.156 129.670 C 85.608 128.866,86.256 127.722,86.596 127.128 C 86.936 126.534,87.160 126.048,87.093 126.048 C 87.025 126.048,86.515 126.820,85.958 127.764 M308.821 128.453 C 309.408 129.636,309.929 130.562,309.979 130.512 C 310.092 130.399,308.046 126.302,307.877 126.302 C 307.810 126.302,308.235 127.270,308.821 128.453 M96.501 132.338 C 94.758 135.441,94.490 135.959,94.631 135.959 C 94.693 135.959,95.137 135.245,95.618 134.371 C 96.098 133.497,96.863 132.125,97.317 131.321 C 97.771 130.518,98.087 129.860,98.018 129.860 C 97.950 129.860,97.267 130.975,96.501 132.338 M83.074 132.973 C 82.909 133.288,82.316 134.403,81.754 135.451 C 81.193 136.499,80.850 137.243,80.993 137.103 C 81.353 136.752,83.683 132.402,83.511 132.402 C 83.435 132.402,83.238 132.659,83.074 132.973 M311.690 134.180 C 312.183 135.159,312.643 135.959,312.713 135.959 C 312.783 135.959,312.437 135.159,311.944 134.180 C 311.451 133.202,310.991 132.402,310.921 132.402 C 310.851 132.402,311.197 133.202,311.690 134.180 M300.889 134.529 C 300.889 134.804,301.899 136.722,302.043 136.722 C 302.113 136.722,301.925 136.236,301.626 135.642 C 301.037 134.473,300.889 134.251,300.889 134.529 M246.335 136.595 C 246.336 137.573,246.382 137.942,246.437 137.415 C 246.492 136.888,246.491 136.087,246.435 135.636 C 246.379 135.185,246.334 135.616,246.335 136.595 M93.323 138.056 C 91.335 141.702,87.127 149.936,87.252 149.936 C 87.322 149.936,88.490 147.792,89.847 145.172 C 91.204 142.551,92.823 139.463,93.446 138.310 C 94.068 137.157,94.521 136.213,94.453 136.213 C 94.384 136.213,93.876 137.043,93.323 138.056 M79.319 140.110 C 78.567 141.531,78.069 142.579,78.212 142.440 C 78.576 142.084,80.894 137.734,80.780 137.620 C 80.728 137.569,80.071 138.689,79.319 140.110 M314.113 138.437 C 314.425 138.961,315.527 140.864,316.561 142.667 C 317.595 144.469,318.652 146.241,318.910 146.606 C 320.758 149.221,323.529 156.721,326.572 167.344 C 327.293 169.860,327.993 172.090,328.128 172.300 C 328.318 172.594,328.337 172.567,328.214 172.180 C 328.126 171.904,327.482 169.617,326.784 167.097 C 323.823 156.416,321.468 150.146,318.813 145.870 C 318.075 144.682,316.653 142.309,315.653 140.597 C 314.653 138.885,313.770 137.484,313.690 137.484 C 313.611 137.484,313.801 137.913,314.113 138.437 M246.090 141.677 C 246.091 143.075,246.134 143.614,246.185 142.876 C 246.237 142.137,246.236 140.994,246.184 140.335 C 246.132 139.675,246.090 140.280,246.090 141.677 M76.351 145.757 C 75.699 146.953,75.211 147.977,75.267 148.033 C 75.323 148.089,75.916 147.110,76.584 145.859 C 77.253 144.607,77.741 143.583,77.668 143.583 C 77.596 143.583,77.003 144.562,76.351 145.757 M245.802 145.362 C 245.802 145.851,245.855 146.051,245.919 145.807 C 245.982 145.562,245.982 145.162,245.919 144.917 C 245.855 144.673,245.802 144.873,245.802 145.362 M245.578 149.174 C 245.578 150.362,245.622 150.848,245.675 150.254 C 245.729 149.660,245.729 148.688,245.675 148.094 C 245.622 147.500,245.578 147.986,245.578 149.174 M73.240 152.110 C 72.793 153.016,72.433 153.842,72.439 153.944 C 72.446 154.046,72.854 153.346,73.345 152.388 C 73.837 151.431,74.197 150.605,74.146 150.554 C 74.095 150.503,73.687 151.203,73.240 152.110 M245.311 153.748 C 245.311 154.517,245.359 154.832,245.417 154.447 C 245.475 154.063,245.475 153.434,245.417 153.050 C 245.359 152.665,245.311 152.980,245.311 153.748 M84.549 155.159 C 84.032 156.205,83.614 157.144,83.621 157.247 C 83.628 157.349,84.093 156.535,84.654 155.438 C 85.215 154.340,85.633 153.401,85.582 153.350 C 85.532 153.299,85.067 154.114,84.549 155.159 M245.050 156.544 C 245.050 157.173,245.100 157.430,245.160 157.116 C 245.221 156.801,245.221 156.287,245.160 155.972 C 245.100 155.658,245.050 155.915,245.050 156.544 M70.300 158.991 C 69.788 160.343,69.412 161.492,69.464 161.544 C 69.516 161.596,69.977 160.532,70.488 159.179 C 70.999 157.827,71.375 156.678,71.324 156.626 C 71.272 156.575,70.811 157.639,70.300 158.991 M82.739 159.232 C 82.366 160.164,82.104 160.969,82.157 161.022 C 82.210 161.075,82.556 160.353,82.927 159.420 C 83.297 158.486,83.559 157.680,83.509 157.630 C 83.458 157.580,83.112 158.301,82.739 159.232 M80.845 164.072 C 80.542 164.864,80.337 165.555,80.389 165.607 C 80.442 165.660,80.733 165.055,81.036 164.263 C 81.339 163.471,81.544 162.780,81.491 162.728 C 81.439 162.676,81.148 163.281,80.845 164.072 M67.366 166.603 C 66.926 167.818,66.627 168.872,66.701 168.946 C 66.775 169.020,66.836 169.022,66.836 168.951 C 66.836 168.879,67.180 167.869,67.599 166.707 C 68.019 165.544,68.318 164.548,68.264 164.494 C 68.209 164.440,67.805 165.389,67.366 166.603 M243.780 165.947 C 243.780 166.576,243.829 166.833,243.890 166.518 C 243.950 166.204,243.950 165.689,243.890 165.375 C 243.829 165.060,243.780 165.318,243.780 165.947 M314.906 165.693 C 314.906 165.902,315.117 166.645,315.375 167.344 C 315.633 168.043,315.844 168.443,315.844 168.234 C 315.844 168.024,315.633 167.281,315.375 166.582 C 315.117 165.883,314.906 165.483,314.906 165.693 M79.441 167.751 C 79.069 168.754,78.808 169.617,78.861 169.670 C 78.914 169.723,79.261 168.945,79.632 167.942 C 80.002 166.938,80.263 166.074,80.211 166.022 C 80.159 165.970,79.813 166.748,79.441 167.751 M149.936 170.247 C 133.693 175.681,116.236 188.993,107.574 202.552 C 106.763 203.822,104.802 206.827,103.218 209.229 C 99.949 214.184,99.705 214.621,98.166 218.297 C 96.541 222.179,94.847 232.073,95.272 235.197 C 95.944 240.133,98.755 249.356,102.149 257.764 C 106.173 267.732,113.958 278.174,122.109 284.537 C 122.668 284.973,120.713 282.913,117.763 279.959 C 111.921 274.107,109.552 271.163,106.392 265.830 C 103.563 261.054,99.752 251.243,97.554 243.075 C 95.105 233.977,95.138 234.380,96.295 227.659 C 97.625 219.931,98.910 216.666,102.999 210.626 C 104.164 208.905,105.936 206.177,106.937 204.564 C 113.065 194.689,126.695 181.927,136.976 176.438 C 141.041 174.267,152.284 169.734,152.663 170.113 C 152.713 170.163,152.813 170.647,152.886 171.188 C 153.235 173.797,153.555 175.627,153.647 175.536 C 153.774 175.408,153.027 170.031,152.840 169.728 C 152.635 169.396,152.303 169.455,149.936 170.247 M78.300 170.803 C 78.144 171.252,78.060 171.664,78.114 171.719 C 78.169 171.773,78.341 171.450,78.498 171.001 C 78.654 170.552,78.738 170.140,78.684 170.086 C 78.629 170.031,78.457 170.354,78.300 170.803 M316.681 171.792 C 316.681 172.001,316.779 172.402,316.900 172.681 C 317.037 173.001,317.118 173.048,317.118 172.808 C 317.118 172.598,317.020 172.198,316.900 171.919 C 316.762 171.598,316.681 171.551,316.681 171.792 M77.155 174.000 C 76.791 175.093,76.502 176.100,76.512 176.240 C 76.523 176.379,76.865 175.529,77.272 174.352 C 77.680 173.174,77.969 172.166,77.915 172.112 C 77.860 172.058,77.518 172.907,77.155 174.000 M64.067 176.392 C 63.619 177.947,63.298 179.265,63.353 179.321 C 63.408 179.376,63.820 178.149,64.269 176.594 C 64.717 175.039,65.038 173.721,64.983 173.665 C 64.927 173.610,64.515 174.837,64.067 176.392 M153.776 176.112 C 153.766 176.321,153.917 177.065,154.112 177.764 C 154.306 178.463,154.473 178.863,154.483 178.653 C 154.493 178.443,154.342 177.700,154.147 177.001 C 153.953 176.302,153.786 175.902,153.776 176.112 M329.375 176.874 C 329.355 177.328,330.417 181.149,330.964 182.592 C 331.176 183.151,331.357 183.473,331.367 183.308 C 331.377 183.142,331.258 182.684,331.102 182.291 C 330.947 181.898,330.498 180.432,330.105 179.034 C 329.712 177.637,329.384 176.665,329.375 176.874 M75.138 180.124 C 68.163 199.622,66.338 218.735,69.795 236.086 C 71.245 243.367,74.458 251.315,76.848 253.537 C 77.153 253.820,75.823 251.484,74.898 250.111 C 73.089 247.427,71.463 242.772,70.254 236.823 C 66.653 219.094,68.276 200.432,75.100 181.094 C 75.736 179.291,76.224 177.723,76.184 177.609 C 76.144 177.495,75.674 178.626,75.138 180.124 M154.554 179.543 C 154.550 179.822,154.645 180.280,154.765 180.559 C 155.043 181.207,155.043 180.539,154.765 179.670 C 154.601 179.159,154.560 179.134,154.554 179.543 M155.273 182.248 C 155.273 182.567,156.791 186.810,157.050 187.214 C 157.322 187.640,157.331 187.636,157.171 187.166 C 155.599 182.559,155.273 181.714,155.273 182.248 M61.180 186.211 C 60.673 187.848,60.302 189.231,60.355 189.284 C 60.408 189.336,60.871 188.046,61.385 186.416 C 61.898 184.787,62.269 183.404,62.209 183.344 C 62.149 183.284,61.686 184.575,61.180 186.211 M319.246 184.498 C 319.246 184.987,319.298 185.187,319.362 184.943 C 319.426 184.698,319.426 184.298,319.362 184.053 C 319.298 183.809,319.246 184.009,319.246 184.498 M331.774 185.769 C 332.301 188.078,334.021 194.399,334.101 194.320 C 334.239 194.181,332.513 187.362,332.032 186.150 C 331.810 185.591,331.694 185.419,331.774 185.769 M157.402 188.056 C 157.625 188.881,158.392 190.612,158.491 190.514 C 158.549 190.456,158.304 189.794,157.947 189.042 C 157.590 188.290,157.345 187.846,157.402 188.056 M319.788 190.470 C 319.789 191.868,319.831 192.407,319.883 191.669 C 319.934 190.930,319.934 189.787,319.881 189.127 C 319.829 188.468,319.787 189.072,319.788 190.470 M158.601 190.978 C 158.601 191.118,158.933 191.861,159.339 192.630 C 159.745 193.399,160.078 193.914,160.078 193.774 C 160.078 193.634,159.745 192.891,159.339 192.122 C 158.933 191.353,158.601 190.839,158.601 190.978 M59.779 192.122 C 59.779 192.611,59.832 192.811,59.896 192.567 C 59.960 192.322,59.960 191.922,59.896 191.677 C 59.832 191.433,59.779 191.633,59.779 192.122 M320.050 197.205 C 320.050 199.231,320.090 200.060,320.138 199.047 C 320.186 198.034,320.186 196.375,320.138 195.362 C 320.090 194.349,320.050 195.178,320.050 197.205 M322.918 194.917 C 323.097 196.587,323.156 196.708,323.304 195.704 C 323.365 195.285,323.270 194.622,323.092 194.231 C 322.796 193.582,322.781 193.643,322.918 194.917 M160.120 194.155 C 160.094 194.422,164.327 204.015,164.728 204.597 C 164.960 204.934,164.300 203.266,163.261 200.889 C 161.329 196.474,160.142 193.928,160.120 194.155 M323.322 197.967 C 323.322 198.596,323.372 198.853,323.432 198.539 C 323.493 198.224,323.493 197.710,323.432 197.395 C 323.372 197.081,323.322 197.338,323.322 197.967 M58.365 200.829 C 57.695 204.482,57.441 206.602,57.473 208.259 C 57.499 209.545,57.536 209.406,57.712 207.370 C 57.826 206.042,58.167 203.549,58.469 201.830 C 58.771 200.111,58.968 198.655,58.907 198.594 C 58.846 198.532,58.602 199.539,58.365 200.829 M233.972 199.885 C 233.375 201.137,233.459 201.350,234.083 200.167 C 234.366 199.629,234.553 199.145,234.498 199.090 C 234.444 199.035,234.207 199.393,233.972 199.885 M335.477 200.413 C 335.463 200.570,335.680 202.057,335.959 203.717 C 336.238 205.376,336.566 207.706,336.688 208.895 C 336.860 210.583,336.915 210.777,336.941 209.784 C 336.986 208.031,335.594 199.124,335.477 200.413 M323.845 204.193 C 323.846 205.172,323.892 205.541,323.947 205.013 C 324.002 204.486,324.001 203.686,323.945 203.234 C 323.888 202.783,323.843 203.215,323.845 204.193 M325.345 204.828 C 325.345 205.318,325.397 205.518,325.461 205.273 C 325.525 205.029,325.525 204.628,325.461 204.384 C 325.397 204.139,325.345 204.339,325.345 204.828 M165.693 206.353 C 165.978 206.912,166.268 207.370,166.338 207.370 C 166.408 207.370,166.232 206.912,165.947 206.353 C 165.661 205.794,165.371 205.337,165.301 205.337 C 165.231 205.337,165.407 205.794,165.693 206.353 M319.259 206.989 C 319.261 207.687,319.311 207.943,319.369 207.557 C 319.428 207.171,319.426 206.599,319.366 206.286 C 319.305 205.974,319.258 206.290,319.259 206.989 M86.501 206.417 C 85.626 207.901,85.569 208.028,86.015 207.497 C 86.531 206.882,86.976 206.099,86.809 206.099 C 86.743 206.099,86.604 206.242,86.501 206.417 M229.442 208.069 C 228.359 209.657,219.769 220.968,218.096 223.010 C 217.857 223.301,218.078 223.103,218.587 222.569 C 219.096 222.036,220.588 220.199,221.904 218.487 C 223.219 216.775,225.043 214.403,225.957 213.215 C 227.997 210.564,230.586 206.861,230.402 206.861 C 230.327 206.861,229.895 207.405,229.442 208.069 M325.609 207.878 C 325.609 208.507,325.659 208.764,325.719 208.450 C 325.780 208.135,325.780 207.621,325.719 207.306 C 325.659 206.992,325.609 207.249,325.609 207.878 M166.836 208.386 C 167.053 208.806,167.288 209.149,167.357 209.149 C 167.427 209.149,167.307 208.806,167.090 208.386 C 166.873 207.967,166.639 207.624,166.569 207.624 C 166.499 207.624,166.619 207.967,166.836 208.386 M84.468 209.720 C 83.593 211.205,83.536 211.331,83.982 210.801 C 84.498 210.186,84.943 209.403,84.776 209.403 C 84.710 209.403,84.571 209.546,84.468 209.720 M325.858 210.546 C 325.861 211.105,325.913 211.304,325.974 210.988 C 326.035 210.672,326.032 210.215,325.969 209.972 C 325.905 209.729,325.855 209.987,325.858 210.546 M168.996 211.944 C 169.295 212.363,169.596 212.706,169.666 212.706 C 169.736 212.706,169.549 212.363,169.250 211.944 C 168.952 211.525,168.650 211.182,168.580 211.182 C 168.510 211.182,168.698 211.525,168.996 211.944 M326.127 214.104 C 326.128 214.943,326.176 215.255,326.232 214.798 C 326.289 214.342,326.288 213.656,326.230 213.274 C 326.172 212.892,326.126 213.266,326.127 214.104 M170.183 213.727 C 170.431 214.148,170.901 214.806,171.226 215.188 C 171.551 215.570,171.395 215.226,170.879 214.422 C 169.901 212.899,169.395 212.394,170.183 213.727 M81.830 214.231 C 81.545 214.790,81.368 215.248,81.438 215.248 C 81.508 215.248,81.799 214.790,82.084 214.231 C 82.369 213.672,82.545 213.215,82.475 213.215 C 82.406 213.215,82.115 213.672,81.830 214.231 M326.379 217.281 C 326.379 218.050,326.426 218.364,326.484 217.980 C 326.543 217.595,326.543 216.966,326.484 216.582 C 326.426 216.198,326.379 216.512,326.379 217.281 M337.299 217.027 C 337.299 217.656,337.349 217.913,337.409 217.598 C 337.470 217.284,337.470 216.769,337.409 216.455 C 337.349 216.140,337.299 216.398,337.299 217.027 M172.554 217.027 C 172.853 217.446,173.154 217.789,173.224 217.789 C 173.294 217.789,173.107 217.446,172.808 217.027 C 172.510 216.607,172.208 216.264,172.138 216.264 C 172.068 216.264,172.255 216.607,172.554 217.027 M324.109 220.076 C 324.109 221.544,324.151 222.144,324.203 221.410 C 324.254 220.677,324.254 219.476,324.203 218.742 C 324.151 218.008,324.109 218.609,324.109 220.076 M173.936 218.889 C 174.327 219.402,174.699 219.822,174.762 219.822 C 174.938 219.822,173.838 218.336,173.513 218.134 C 173.354 218.036,173.544 218.376,173.936 218.889 M176.646 222.109 C 178.211 223.947,187.872 233.538,190.981 236.341 C 191.524 236.830,189.515 234.831,186.518 231.900 C 179.621 225.156,178.661 224.189,176.539 221.855 L 174.807 219.949 176.646 222.109 M337.329 225.286 C 337.329 227.103,337.370 227.813,337.419 226.864 C 337.468 225.914,337.467 224.428,337.418 223.560 C 337.368 222.692,337.328 223.469,337.329 225.286 M326.384 224.142 C 326.384 225.051,326.430 225.422,326.486 224.968 C 326.543 224.514,326.543 223.771,326.486 223.316 C 326.430 222.862,326.384 223.234,326.384 224.142 M323.834 224.778 C 323.836 225.476,323.885 225.732,323.943 225.346 C 324.002 224.960,324.000 224.388,323.940 224.075 C 323.880 223.763,323.832 224.079,323.834 224.778 M216.251 225.095 L 215.375 226.048 216.328 225.173 C 217.215 224.357,217.398 224.142,217.204 224.142 C 217.161 224.142,216.732 224.571,216.251 225.095 M213.838 227.715 C 213.286 228.282,210.979 230.362,208.712 232.336 C 205.268 235.336,204.641 235.987,204.899 236.299 C 205.224 236.690,212.883 241.865,213.977 242.433 C 215.099 243.015,214.451 242.557,209.720 239.421 C 207.170 237.730,205.083 236.237,205.083 236.103 C 205.083 235.970,206.884 234.266,209.085 232.317 C 212.864 228.971,215.254 226.684,214.970 226.684 C 214.900 226.684,214.391 227.148,213.838 227.715 M323.580 227.827 C 323.582 228.526,323.631 228.782,323.689 228.395 C 323.748 228.009,323.746 227.437,323.686 227.125 C 323.626 226.812,323.578 227.128,323.580 227.827 M315.056 228.171 C 314.826 228.561,314.449 229.444,314.220 230.133 C 311.944 236.969,299.634 248.942,289.829 253.854 C 286.824 255.360,286.797 255.579,289.793 254.149 C 298.961 249.774,311.467 237.780,314.255 230.689 C 314.599 229.814,315.060 228.775,315.279 228.381 C 315.803 227.442,315.600 227.251,315.056 228.171 M57.238 228.717 C 57.238 229.206,57.290 229.406,57.354 229.161 C 57.418 228.917,57.418 228.517,57.354 228.272 C 57.290 228.027,57.238 228.227,57.238 228.717 M326.132 229.606 C 326.133 230.584,326.179 230.954,326.234 230.426 C 326.289 229.899,326.288 229.099,326.232 228.647 C 326.176 228.196,326.131 228.628,326.132 229.606 M323.317 230.623 C 323.320 231.182,323.372 231.380,323.433 231.064 C 323.493 230.748,323.491 230.291,323.427 230.048 C 323.364 229.805,323.314 230.064,323.317 230.623 M76.326 232.147 C 76.327 233.266,76.372 233.691,76.425 233.094 C 76.479 232.496,76.478 231.581,76.424 231.061 C 76.369 230.540,76.325 231.029,76.326 232.147 M325.858 232.910 C 325.861 233.469,325.913 233.668,325.974 233.352 C 326.035 233.035,326.032 232.578,325.969 232.335 C 325.905 232.092,325.855 232.351,325.858 232.910 M336.791 233.037 C 336.791 233.666,336.841 233.923,336.901 233.609 C 336.962 233.294,336.962 232.780,336.901 232.465 C 336.841 232.151,336.791 232.408,336.791 233.037 M57.484 234.943 C 57.484 235.222,57.576 235.737,57.687 236.086 C 57.849 236.589,57.891 236.616,57.891 236.213 C 57.891 235.934,57.799 235.419,57.687 235.070 C 57.526 234.567,57.484 234.540,57.484 234.943 M336.134 239.028 C 335.882 241.345,335.388 244.385,335.035 245.784 C 334.682 247.183,334.441 248.376,334.500 248.435 C 334.912 248.847,336.253 241.627,336.616 237.039 C 336.907 233.355,336.622 234.534,336.134 239.028 M76.318 236.468 C 76.319 237.306,76.366 237.619,76.423 237.162 C 76.480 236.705,76.478 236.019,76.420 235.637 C 76.362 235.255,76.316 235.629,76.318 236.468 M57.790 237.358 C 57.869 237.707,58.115 239.078,58.337 240.404 C 58.704 242.599,58.972 243.593,58.949 242.673 C 58.928 241.839,58.009 237.085,57.835 236.912 C 57.731 236.808,57.711 237.008,57.790 237.358 M193.266 238.374 C 193.954 239.072,194.574 239.644,194.644 239.644 C 194.714 239.644,194.208 239.072,193.520 238.374 C 192.831 237.675,192.211 237.103,192.141 237.103 C 192.071 237.103,192.577 237.675,193.266 238.374 M197.441 241.816 C 199.304 243.541,200.425 244.460,201.970 245.529 C 203.746 246.758,203.192 246.166,201.080 244.579 C 199.997 243.765,198.596 242.632,197.967 242.062 C 197.338 241.493,196.595 240.863,196.315 240.664 C 196.036 240.465,196.542 240.983,197.441 241.816 M321.111 241.314 C 321.017 241.687,320.990 242.040,321.050 242.100 C 321.110 242.160,321.235 241.904,321.329 241.532 C 321.422 241.160,321.450 240.806,321.390 240.746 C 321.330 240.686,321.204 240.942,321.111 241.314 M214.740 242.808 C 214.740 242.878,215.083 243.112,215.502 243.329 C 215.921 243.546,216.264 243.666,216.264 243.596 C 216.264 243.526,215.921 243.292,215.502 243.075 C 215.083 242.858,214.740 242.738,214.740 242.808 M216.518 243.800 C 216.518 243.970,218.863 245.262,218.973 245.153 C 219.022 245.103,218.490 244.752,217.790 244.371 C 217.091 243.990,216.518 243.733,216.518 243.800 M221.601 246.209 C 221.811 246.338,222.268 246.521,222.618 246.614 C 223.059 246.732,223.137 246.712,222.872 246.549 C 222.662 246.419,222.205 246.237,221.855 246.143 C 221.414 246.025,221.336 246.045,221.601 246.209 M203.304 246.366 C 203.304 246.435,204.333 247.185,205.591 248.030 C 206.849 248.876,207.878 249.511,207.878 249.441 C 207.878 249.371,206.849 248.622,205.591 247.776 C 204.333 246.931,203.304 246.296,203.304 246.366 M226.175 247.903 C 226.525 248.103,226.925 248.267,227.065 248.267 C 227.205 248.267,227.033 248.103,226.684 247.903 C 226.334 247.704,225.934 247.540,225.794 247.540 C 225.654 247.540,225.826 247.704,226.175 247.903 M318.466 248.423 C 318.040 249.357,318.121 249.556,318.582 248.707 C 318.797 248.310,318.925 247.938,318.867 247.880 C 318.809 247.822,318.628 248.066,318.466 248.423 M60.496 249.076 C 60.465 249.439,61.554 253.512,61.731 253.694 C 61.976 253.947,61.307 250.993,60.852 249.809 C 60.663 249.320,60.503 248.990,60.496 249.076 M208.132 249.679 C 208.132 249.804,210.444 251.390,212.198 252.468 C 212.827 252.855,213.170 253.004,212.961 252.798 C 212.493 252.340,208.132 249.523,208.132 249.679 M231.921 250.179 C 232.356 250.380,233.042 250.609,233.446 250.689 C 234.074 250.813,234.052 250.783,233.291 250.485 C 231.918 249.947,230.949 249.730,231.921 250.179 M317.202 251.219 C 316.436 252.795,316.521 253.016,317.310 251.500 C 317.663 250.822,317.908 250.224,317.855 250.171 C 317.801 250.118,317.508 250.590,317.202 251.219 M332.803 253.181 C 331.537 256.934,331.549 256.892,331.865 256.400 C 332.218 255.849,333.994 250.555,333.868 250.429 C 333.812 250.373,333.333 251.611,332.803 253.181 M239.502 252.625 C 242.429 253.586,244.857 254.338,244.897 254.298 C 245.159 254.036,235.121 250.750,234.372 250.852 C 234.267 250.867,236.575 251.664,239.502 252.625 M80.051 251.761 C 80.051 252.459,85.425 259.998,88.443 263.535 C 93.989 270.034,102.485 278.006,107.913 281.805 C 109.653 283.023,108.783 282.221,106.226 280.252 C 96.414 272.694,86.146 261.620,80.959 253.001 C 80.460 252.171,80.051 251.613,80.051 251.761 M315.934 254.008 C 315.630 254.634,315.435 255.146,315.500 255.146 C 315.672 255.146,316.699 253.082,316.584 252.967 C 316.531 252.914,316.238 253.382,315.934 254.008 M213.469 253.183 C 213.469 253.401,218.769 256.770,221.855 258.514 C 229.441 262.801,244.265 269.687,247.141 270.261 C 247.560 270.344,246.874 270.026,245.616 269.553 C 236.452 266.110,222.263 258.875,214.168 253.517 C 213.783 253.263,213.469 253.113,213.469 253.183 M77.764 255.019 C 78.196 255.648,78.608 256.163,78.678 256.163 C 78.747 256.163,78.451 255.648,78.018 255.019 C 77.585 254.390,77.174 253.875,77.104 253.875 C 77.034 253.875,77.331 254.390,77.764 255.019 M318.332 258.343 C 314.870 265.145,313.512 266.886,307.373 272.391 C 303.321 276.024,301.702 277.172,296.506 280.100 C 295.003 280.946,293.774 281.683,293.774 281.738 C 293.774 282.128,302.146 277.226,303.812 275.860 C 308.740 271.822,313.244 267.275,315.339 264.223 C 316.272 262.863,320.565 254.661,320.420 254.516 C 320.369 254.465,319.429 256.187,318.332 258.343 M247.141 255.146 C 247.421 255.266,247.821 255.365,248.030 255.365 C 248.271 255.365,248.224 255.284,247.903 255.146 C 247.624 255.026,247.224 254.928,247.014 254.928 C 246.774 254.928,246.821 255.008,247.141 255.146 M285.769 255.673 C 285.210 255.942,285.038 256.090,285.388 256.003 C 286.107 255.824,287.428 255.162,287.039 255.175 C 286.900 255.180,286.328 255.404,285.769 255.673 M62.865 256.163 C 63.553 258.704,68.535 267.631,69.237 267.578 C 69.384 267.567,69.361 267.501,69.187 267.430 C 69.012 267.360,68.869 267.177,68.869 267.024 C 68.869 266.709,67.065 263.959,66.773 263.829 C 66.668 263.782,66.573 263.554,66.562 263.321 C 66.551 263.088,66.209 262.382,65.802 261.753 C 65.395 261.125,64.846 260.152,64.581 259.593 C 63.173 256.618,62.772 255.818,62.865 256.163 M283.482 256.417 C 283.161 256.554,283.114 256.635,283.355 256.635 C 283.564 256.635,283.964 256.537,284.244 256.417 C 284.564 256.279,284.611 256.198,284.371 256.198 C 284.161 256.198,283.761 256.297,283.482 256.417 M281.321 256.904 C 280.972 257.009,279.603 257.248,278.279 257.436 C 276.956 257.623,276.009 257.823,276.176 257.878 C 276.342 257.934,277.597 257.799,278.963 257.579 C 281.560 257.161,283.369 256.715,282.465 256.715 C 282.186 256.715,281.671 256.800,281.321 256.904 M313.707 257.604 C 313.316 258.117,313.125 258.457,313.284 258.359 C 313.609 258.157,314.709 256.671,314.533 256.671 C 314.470 256.671,314.098 257.091,313.707 257.604 M255.972 257.100 C 256.217 257.164,256.617 257.164,256.861 257.100 C 257.106 257.036,256.906 256.984,256.417 256.984 C 255.928 256.984,255.727 257.036,255.972 257.100 M260.165 257.613 C 260.480 257.673,260.994 257.673,261.309 257.613 C 261.623 257.552,261.366 257.503,260.737 257.503 C 260.108 257.503,259.851 257.552,260.165 257.613 M263.477 257.875 C 264.216 257.927,265.359 257.926,266.019 257.874 C 266.678 257.822,266.074 257.780,264.676 257.780 C 263.278 257.781,262.739 257.824,263.477 257.875 M268.170 258.124 C 268.555 258.182,269.184 258.182,269.568 258.124 C 269.952 258.065,269.638 258.018,268.869 258.018 C 268.100 258.018,267.786 258.065,268.170 258.124 M272.498 258.129 C 273.166 258.181,274.195 258.181,274.785 258.127 C 275.375 258.074,274.828 258.031,273.571 258.032 C 272.313 258.033,271.830 258.076,272.498 258.129 M329.787 260.620 C 329.130 261.942,328.648 263.024,328.716 263.024 C 328.885 263.024,331.185 258.419,331.072 258.306 C 331.022 258.256,330.444 259.298,329.787 260.620 M311.925 259.911 C 310.200 262.058,306.139 266.092,304.638 267.150 C 303.834 267.717,303.177 268.228,303.177 268.286 C 303.177 268.489,304.825 267.339,306.658 265.856 C 307.998 264.772,313.387 258.704,313.010 258.704 C 312.946 258.704,312.458 259.247,311.925 259.911 M82.846 261.579 C 82.846 261.623,83.218 261.994,83.672 262.405 L 84.498 263.151 83.752 262.325 C 83.056 261.555,82.846 261.383,82.846 261.579 M85.388 264.422 C 85.862 264.911,86.307 265.311,86.377 265.311 C 86.447 265.311,86.116 264.911,85.642 264.422 C 85.168 263.933,84.722 263.532,84.653 263.532 C 84.583 263.532,84.913 263.933,85.388 264.422 M327.372 264.994 C 326.759 265.869,326.248 266.836,326.399 266.836 C 326.462 266.836,326.865 266.264,327.295 265.565 C 328.132 264.205,328.181 263.839,327.372 264.994 M88.818 268.361 C 89.507 269.060,90.127 269.632,90.197 269.632 C 90.267 269.632,89.761 269.060,89.072 268.361 C 88.384 267.662,87.764 267.090,87.694 267.090 C 87.624 267.090,88.130 267.662,88.818 268.361 M69.711 268.615 C 73.340 273.312,75.055 275.476,75.147 275.476 C 75.449 275.476,71.384 270.098,70.129 268.837 C 69.201 267.904,69.133 267.868,69.711 268.615 M324.871 268.806 C 324.457 269.330,323.849 270.159,323.520 270.648 C 322.595 272.022,323.719 270.820,324.885 269.187 C 325.986 267.645,325.978 267.407,324.871 268.806 M301.207 269.407 C 300.341 269.961,300.061 270.334,300.826 269.913 C 301.409 269.593,302.322 268.886,302.160 268.881 C 302.090 268.879,301.661 269.116,301.207 269.407 M90.978 270.245 C 92.845 272.332,102.506 280.512,105.210 282.294 L 106.099 282.880 105.218 282.165 C 104.733 281.771,102.674 280.123,100.643 278.502 C 98.612 276.881,95.464 274.201,93.647 272.545 C 91.830 270.889,90.629 269.854,90.978 270.245 M248.412 270.648 C 248.691 270.768,249.091 270.866,249.301 270.866 C 249.541 270.866,249.494 270.786,249.174 270.648 C 248.895 270.528,248.494 270.430,248.285 270.430 C 248.044 270.430,248.091 270.510,248.412 270.648 M298.285 271.048 C 297.335 271.563,297.392 271.778,298.348 271.283 C 298.767 271.067,299.111 270.835,299.111 270.769 C 299.111 270.605,299.083 270.614,298.285 271.048 M294.536 272.808 C 293.628 273.284,292.999 273.673,293.139 273.673 C 293.278 273.673,294.136 273.284,295.044 272.808 C 295.953 272.332,296.582 271.943,296.442 271.943 C 296.302 271.943,295.445 272.332,294.536 272.808 M320.818 274.142 C 320.284 274.806,320.111 275.121,320.434 274.841 C 321.040 274.316,322.104 272.935,321.903 272.935 C 321.840 272.935,321.352 273.478,320.818 274.142 M265.629 274.381 C 265.874 274.445,266.274 274.445,266.518 274.381 C 266.763 274.317,266.563 274.265,266.074 274.265 C 265.584 274.265,265.384 274.317,265.629 274.381 M270.966 275.143 C 271.210 275.207,271.611 275.207,271.855 275.143 C 272.100 275.079,271.900 275.027,271.410 275.027 C 270.921 275.027,270.721 275.079,270.966 275.143 M274.778 275.652 C 275.022 275.716,275.422 275.716,275.667 275.652 C 275.912 275.588,275.712 275.535,275.222 275.535 C 274.733 275.535,274.533 275.588,274.778 275.652 M316.515 278.844 L 313.215 282.211 316.582 278.911 C 319.710 275.845,320.064 275.476,319.882 275.476 C 319.845 275.476,318.330 276.992,316.515 278.844 M277.573 275.916 C 278.097 275.971,278.955 275.971,279.479 275.916 C 280.003 275.861,279.574 275.816,278.526 275.816 C 277.478 275.816,277.049 275.861,277.573 275.916 M283.164 275.913 C 283.548 275.971,284.177 275.971,284.562 275.913 C 284.946 275.854,284.632 275.807,283.863 275.807 C 283.094 275.807,282.780 275.854,283.164 275.913 M77.764 277.891 C 78.664 278.799,79.458 279.543,79.528 279.543 C 79.598 279.543,78.918 278.799,78.018 277.891 C 77.117 276.982,76.323 276.239,76.254 276.239 C 76.184 276.239,76.863 276.982,77.764 277.891 M79.871 279.710 C 80.089 280.065,82.592 282.182,82.592 282.011 C 82.592 281.945,81.939 281.334,81.141 280.653 C 80.343 279.973,79.772 279.548,79.871 279.710 M292.440 282.355 C 291.916 282.632,291.487 282.915,291.487 282.985 C 291.487 283.054,291.944 282.877,292.503 282.592 C 293.062 282.307,293.520 282.019,293.520 281.952 C 293.520 281.785,293.518 281.786,292.440 282.355 M83.609 282.815 C 84.098 283.244,85.013 283.949,85.642 284.383 L 86.785 285.172 85.943 284.421 C 85.479 284.009,84.564 283.303,83.910 282.854 L 82.719 282.037 83.609 282.815 M312.189 282.790 C 311.765 283.170,311.022 283.803,310.538 284.197 C 309.808 284.790,309.862 284.773,310.852 284.099 C 311.914 283.376,313.354 282.072,313.068 282.091 C 313.009 282.095,312.614 282.410,312.189 282.790 M106.397 283.121 C 106.713 283.502,108.259 284.475,108.259 284.292 C 108.259 284.233,107.773 283.864,107.179 283.472 C 106.585 283.080,106.233 282.922,106.397 283.121 M110.419 283.486 C 110.699 283.714,111.156 284.012,111.436 284.150 L 111.944 284.399 111.436 283.985 C 111.156 283.758,110.699 283.459,110.419 283.322 L 109.911 283.072 110.419 283.486 M288.119 284.848 C 287.175 285.379,286.317 285.908,286.213 286.025 C 285.975 286.291,289.493 284.409,289.822 284.094 C 290.233 283.700,289.896 283.850,288.119 284.848 M307.428 286.255 C 305.289 287.712,304.717 288.185,305.718 287.671 C 306.901 287.063,310.002 284.766,309.466 284.895 C 309.431 284.903,308.514 285.515,307.428 286.255 M109.784 285.247 C 109.784 285.317,110.127 285.552,110.546 285.769 C 110.966 285.986,111.309 286.106,111.309 286.036 C 111.309 285.966,110.966 285.731,110.546 285.515 C 110.127 285.298,109.784 285.178,109.784 285.247 M87.929 285.998 C 87.929 286.068,88.443 286.480,89.072 286.912 C 89.701 287.345,90.216 287.642,90.216 287.572 C 90.216 287.502,89.701 287.091,89.072 286.658 C 88.443 286.225,87.929 285.929,87.929 285.998 M283.355 287.421 C 282.027 288.105,281.028 288.671,281.136 288.678 C 281.406 288.696,285.896 286.429,285.896 286.274 C 285.896 286.102,286.027 286.042,283.355 287.421 M112.452 286.783 C 113.020 287.255,114.630 288.125,114.231 287.744 C 114.091 287.611,113.520 287.245,112.961 286.931 C 112.402 286.617,112.173 286.550,112.452 286.783 M116.645 287.280 C 116.645 287.350,116.989 287.585,117.408 287.802 C 117.827 288.019,118.170 288.139,118.170 288.069 C 118.170 287.999,117.827 287.764,117.408 287.548 C 116.989 287.331,116.645 287.211,116.645 287.280 M126.048 287.259 C 126.048 287.329,126.391 287.630,126.811 287.929 C 127.230 288.227,127.573 288.415,127.573 288.345 C 127.573 288.275,127.230 287.973,126.811 287.675 C 126.391 287.376,126.048 287.189,126.048 287.259 M91.233 288.280 C 91.233 288.342,91.947 288.897,92.821 289.515 C 94.703 290.844,95.044 291.053,95.044 290.874 C 95.044 290.800,94.187 290.161,93.139 289.454 C 92.090 288.746,91.233 288.218,91.233 288.280 M115.121 288.309 C 115.121 288.480,117.693 289.761,117.807 289.647 C 117.859 289.595,117.276 289.246,116.511 288.871 C 115.746 288.495,115.121 288.243,115.121 288.309 M275.604 290.720 C 269.694 293.142,266.196 294.351,261.881 295.462 C 260.064 295.930,259.091 296.243,259.720 296.156 C 261.677 295.887,266.944 294.352,270.590 292.989 C 274.034 291.701,280.573 289.016,280.788 288.802 C 281.070 288.519,280.092 288.881,275.604 290.720 M301.779 289.839 C 300.801 290.462,300.089 290.974,300.197 290.976 C 300.432 290.979,303.685 288.946,303.685 288.796 C 303.685 288.627,303.640 288.652,301.779 289.839 M129.590 289.813 C 130.829 291.315,145.749 298.576,149.428 299.468 C 150.329 299.686,149.804 299.448,145.235 297.565 C 141.451 296.007,133.400 292.117,132.159 291.249 C 130.564 290.132,129.246 289.396,129.590 289.813 M293.901 294.040 C 290.686 295.706,288.159 297.071,288.285 297.073 C 288.576 297.079,299.409 291.537,299.733 291.217 C 300.141 290.814,299.925 290.919,293.901 294.040 M122.490 291.868 C 122.840 292.068,123.240 292.231,123.380 292.231 C 123.520 292.231,123.348 292.068,122.999 291.868 C 122.649 291.668,122.249 291.505,122.109 291.505 C 121.970 291.505,122.141 291.668,122.490 291.868 M96.950 292.133 C 97.552 292.620,100.398 294.097,100.511 293.981 C 100.554 293.937,99.656 293.411,98.516 292.812 C 97.375 292.213,96.671 291.907,96.950 292.133 M102.668 294.921 C 102.668 295.065,106.137 296.825,106.410 296.819 C 106.646 296.813,104.056 295.351,103.240 295.029 C 102.926 294.905,102.668 294.856,102.668 294.921 M108.767 297.654 C 108.767 297.827,113.879 299.929,114.001 299.806 C 114.057 299.751,113.045 299.272,111.753 298.742 C 108.651 297.471,108.767 297.514,108.767 297.654 M250.953 298.094 C 250.633 298.232,250.586 298.312,250.826 298.312 C 251.036 298.312,251.436 298.214,251.715 298.094 C 252.036 297.956,252.083 297.876,251.842 297.876 C 251.633 297.876,251.233 297.974,250.953 298.094 M283.289 298.912 C 282.204 299.345,281.359 299.741,281.410 299.792 C 281.520 299.902,285.642 298.351,285.642 298.199 C 285.642 298.007,285.276 298.118,283.289 298.912 M151.334 300.127 C 151.614 300.247,152.014 300.345,152.224 300.345 C 152.464 300.345,152.417 300.265,152.097 300.127 C 151.817 300.007,151.417 299.909,151.207 299.909 C 150.967 299.909,151.014 299.989,151.334 300.127 M276.548 301.703 C 275.251 302.271,274.235 302.782,274.291 302.838 C 274.392 302.939,278.998 301.010,279.245 300.764 C 279.550 300.459,278.754 300.736,276.548 301.703 M117.662 301.252 C 117.662 301.361,119.753 302.176,120.966 302.540 C 122.231 302.921,121.268 302.405,119.551 301.782 C 117.635 301.087,117.662 301.094,117.662 301.252 M156.671 301.398 C 157.746 301.671,158.669 301.671,157.814 301.398 C 157.465 301.286,156.893 301.196,156.544 301.199 C 155.973 301.203,155.986 301.223,156.671 301.398 M162.452 302.335 C 162.697 302.399,163.097 302.399,163.342 302.335 C 163.586 302.271,163.386 302.219,162.897 302.219 C 162.408 302.219,162.208 302.271,162.452 302.335 M164.361 302.594 C 164.677 302.655,165.135 302.652,165.378 302.589 C 165.621 302.525,165.362 302.475,164.803 302.478 C 164.244 302.481,164.045 302.533,164.361 302.594 M167.154 302.848 C 167.468 302.908,167.983 302.908,168.297 302.848 C 168.612 302.787,168.355 302.738,167.726 302.738 C 167.097 302.738,166.839 302.787,167.154 302.848 M170.203 303.106 C 170.658 303.163,171.401 303.163,171.855 303.106 C 172.309 303.050,171.938 303.004,171.029 303.004 C 170.121 303.004,169.749 303.050,170.203 303.106 M224.057 303.327 C 223.101 303.517,221.157 303.784,219.736 303.919 L 217.154 304.165 219.822 304.046 C 222.153 303.941,228.111 302.982,226.429 302.982 C 226.080 302.982,225.012 303.137,224.057 303.327 M175.035 303.610 C 175.351 303.671,175.808 303.669,176.051 303.605 C 176.294 303.542,176.036 303.492,175.476 303.495 C 174.917 303.498,174.719 303.550,175.035 303.610 M268.742 304.667 C 266.925 305.320,264.867 306.099,264.168 306.398 C 263.469 306.696,261.925 307.122,260.737 307.343 C 259.549 307.565,257.583 308.085,256.367 308.500 C 255.152 308.914,253.151 309.379,251.920 309.532 C 248.095 310.011,239.528 311.431,239.964 311.515 C 240.191 311.559,242.071 311.310,244.141 310.962 C 246.210 310.613,249.089 310.205,250.538 310.054 C 253.407 309.755,256.155 309.161,257.220 308.608 C 257.592 308.415,259.070 308.022,260.505 307.734 C 261.940 307.447,263.751 306.943,264.530 306.615 C 265.309 306.288,267.405 305.483,269.187 304.827 C 270.969 304.171,272.427 303.588,272.427 303.532 C 272.427 303.357,272.131 303.449,268.742 304.667 M177.827 303.869 C 178.281 303.925,179.025 303.925,179.479 303.869 C 179.933 303.812,179.562 303.766,178.653 303.766 C 177.745 303.766,177.373 303.812,177.827 303.869 M183.423 304.123 C 183.879 304.180,184.566 304.179,184.947 304.121 C 185.329 304.063,184.956 304.016,184.117 304.018 C 183.278 304.019,182.966 304.067,183.423 304.123 M125.921 304.509 C 126.201 304.674,127.344 305.055,128.463 305.356 C 129.581 305.657,130.724 305.978,131.004 306.069 C 131.283 306.160,131.055 306.007,130.496 305.729 C 129.936 305.451,129.276 305.220,129.028 305.216 C 128.780 305.213,127.926 304.981,127.131 304.701 C 125.490 304.125,125.190 304.077,125.921 304.509 M186.980 304.377 C 187.437 304.434,188.123 304.433,188.505 304.375 C 188.887 304.317,188.513 304.270,187.675 304.272 C 186.836 304.273,186.524 304.321,186.980 304.377 M214.295 304.375 C 214.679 304.433,215.308 304.433,215.693 304.375 C 216.077 304.317,215.762 304.269,214.994 304.269 C 214.225 304.269,213.910 304.317,214.295 304.375 M191.305 304.635 C 192.043 304.686,193.187 304.686,193.846 304.634 C 194.505 304.582,193.901 304.539,192.503 304.540 C 191.105 304.541,190.566 304.583,191.305 304.635 M206.937 304.636 C 208.026 304.684,209.742 304.684,210.749 304.636 C 211.756 304.588,210.864 304.549,208.767 304.549 C 206.671 304.549,205.847 304.589,206.937 304.636 M200.699 304.887 C 201.293 304.941,202.265 304.941,202.859 304.887 C 203.453 304.834,202.967 304.790,201.779 304.790 C 200.591 304.790,200.105 304.834,200.699 304.887 M135.052 307.262 C 135.607 307.615,140.037 308.841,140.193 308.685 C 140.248 308.629,139.748 308.442,139.080 308.268 C 138.412 308.095,137.294 307.776,136.595 307.561 C 134.597 306.944,134.533 306.932,135.052 307.262 M145.521 310.289 C 146.319 310.611,151.825 311.820,152.381 311.796 C 152.644 311.784,152.173 311.614,151.334 311.418 C 145.024 309.944,144.340 309.811,145.521 310.289 M163.024 313.347 C 163.723 313.460,165.038 313.564,165.947 313.579 C 166.855 313.594,168.856 313.777,170.394 313.987 C 171.931 314.197,175.133 314.415,177.510 314.472 L 181.830 314.576 177.891 314.366 C 175.724 314.251,172.465 313.979,170.648 313.762 C 167.047 313.332,160.818 312.993,163.024 313.347 M226.684 313.620 C 225.216 313.883,223.158 314.199,222.109 314.322 C 220.518 314.509,220.400 314.551,221.395 314.579 C 222.414 314.608,229.626 313.522,230.368 313.228 C 230.985 312.984,229.133 313.181,226.684 313.620 M182.532 314.795 C 182.918 314.853,183.490 314.852,183.803 314.791 C 184.115 314.731,183.799 314.683,183.100 314.685 C 182.402 314.687,182.146 314.736,182.532 314.795 M217.726 314.796 C 218.180 314.853,218.923 314.853,219.377 314.796 C 219.832 314.740,219.460 314.694,218.551 314.694 C 217.643 314.694,217.271 314.740,217.726 314.796 M186.090 315.049 C 186.476 315.107,187.048 315.106,187.361 315.045 C 187.673 314.985,187.357 314.937,186.658 314.939 C 185.959 314.941,185.704 314.991,186.090 315.049 M214.425 315.046 C 214.741 315.107,215.198 315.105,215.441 315.041 C 215.684 314.978,215.426 314.928,214.867 314.931 C 214.307 314.933,214.109 314.986,214.425 315.046 M191.931 315.306 C 192.456 315.361,193.313 315.361,193.837 315.306 C 194.361 315.251,193.933 315.206,192.884 315.206 C 191.836 315.206,191.407 315.251,191.931 315.306 M209.975 315.303 C 210.359 315.361,210.988 315.361,211.372 315.303 C 211.757 315.245,211.442 315.197,210.673 315.197 C 209.905 315.197,209.590 315.245,209.975 315.303 " stroke="none" fill="#545a55" fill-rule="evenodd"></path></g></svg>